<?xml version="1.0" encoding="utf-8"?>
<!-- Generator: Adobe Illustrator 16.0.3, SVG Export Plug-In . SVG Version: 6.00 Build 0)  -->
<!DOCTYPE svg PUBLIC "-//W3C//DTD SVG 1.1//EN" "http://www.w3.org/Graphics/SVG/1.1/DTD/svg11.dtd">
<svg version="1.1" id="Capa_1" xmlns="http://www.w3.org/2000/svg" xmlns:xlink="http://www.w3.org/1999/xlink" x="0px" y="0px"
	 width="800px" height="800px" viewBox="0 0 800 800" enable-background="new 0 0 800 800" xml:space="preserve">
<defs>
		<style>
			.capa01
			{
				animation: capa01 600s infinite;
				transform-origin: 50% 50%
			}

			.capa02
			{
				animation: capa01 430s infinite;
				transform-origin: 50% 50%
			}

			.capa03
			{
				animation: capa03 500s infinite;
				transform-origin: 50% 50%
			}

			.capa04
			{
				animation: capa01 400s infinite;
				transform-origin: 50% 50%
			}

			.capa05
			{
				animation: capa05 190s infinite;
				transform-origin: 50% 50%
			}

			.capa06
			{
				animation: capa01 500s infinite;
				transform-origin: 50% 50%
			}

			.capa07
			{
				animation: capa01 350s infinite;
				transform-origin: 50% 50%
			}

			.capa08
			{
				animation: capa01 600s infinite;
				transform-origin: 50% 50%
			}

			@keyframes capa01 {
				to{
				transform: rotate(6turn)
				}
			}

			@keyframes capa03 {
				to{
				transform: rotate(-6turn)
				}
			}

			@keyframes capa05 {
				to{
				transform: rotate(-6turn)
				}
			}

		</style>
	</defs>

<g id="Design">
	<g>
		
			<polyline fill="none" stroke="#491044" stroke-width="4" stroke-linecap="round" stroke-linejoin="round" stroke-miterlimit="10" points="
			69.135,492.496 61.232,538.481 106.294,545.413 		"/>
		
			<polyline fill="none" stroke="#491044" stroke-width="4" stroke-linecap="round" stroke-linejoin="round" stroke-miterlimit="10" points="
			89.595,478.13 81.691,524.114 126.753,531.046 		"/>
		
			<polyline fill="none" stroke="#491044" stroke-width="4" stroke-linecap="round" stroke-linejoin="round" stroke-miterlimit="10" points="
			110.054,463.763 102.151,509.747 147.213,516.679 		"/>
		
			<polyline fill="none" stroke="#491044" stroke-width="4" stroke-linecap="round" stroke-linejoin="round" stroke-miterlimit="10" points="
			130.514,449.396 122.61,495.381 167.672,502.312 		"/>
	</g>
	
		<line fill="none" stroke="#491044" stroke-width="4" stroke-linecap="round" stroke-linejoin="round" stroke-miterlimit="10" x1="82.355" y1="168.448" x2="108.645" y2="191.553"/>
	<g>
		
			<line fill="none" stroke="#491044" stroke-width="4" stroke-linecap="round" stroke-linejoin="round" stroke-miterlimit="10" x1="660.322" y1="496.322" x2="684.711" y2="520.711"/>
		
			<line fill="none" stroke="#491044" stroke-width="4" stroke-linecap="round" stroke-linejoin="round" stroke-miterlimit="10" x1="684.711" y1="496.322" x2="660.322" y2="520.711"/>
	</g>
	<path opacity="0.26" fill="#FFB6F5" enable-background="new    " d="M582.266,583.427L582.266,583.427
		c17.496,1.887,30.15,17.599,28.265,35.094l0,0c-1.886,17.495-17.598,30.15-35.094,28.266l0,0
		c-17.496-1.886-30.15-17.598-28.265-35.094l0,0C549.058,594.195,564.77,581.541,582.266,583.427z"/>
	<path opacity="0.26" fill="#FFB6F5" enable-background="new    " d="M260.979,156.199c19.703,7.087,34.539,23.252,48.318,39.017
		c13.779,15.765,28.064,32.249,47.358,40.383c19.294,8.133,45.175,4.906,56.218-12.884c7.878-12.689,6.188-29.658-1.103-42.693
		c-9.24-16.517-26.056-27.471-43.45-34.928c-17.395-7.458-35.912-12.067-53.24-19.678c-37.21-16.343-69.394-46.556-109.773-51.154
		c-12.388-1.411-25.439-0.136-36.299,5.992c-10.859,6.127-19.096,17.7-19.02,30.167c0.135,21.931,24.047,36.196,45.783,39.104
		C217.511,152.432,240.342,148.775,260.979,156.199z"/>
	<g id="_x3C_cuadrado2_x3E_"  class="capa01">
		
			<linearGradient id="SVGID_1_" gradientUnits="userSpaceOnUse" x1="136.8816" y1="392.6646" x2="666.0129" y2="392.6646" gradientTransform="matrix(0.9975 0.0707 0.0707 -0.9975 -28.2037 762.3006)">
			<stop  offset="0.007" style="stop-color:#FC6CE2"/>
			<stop  offset="1" style="stop-color:#B294EF"/>
		</linearGradient>
		<path fill="url(#SVGID_1_)" d="M647.515,582.365c-31.896,4.484-63.794,8.971-95.69,13.456
			c-63.391,8.914-126.779,17.827-190.171,26.74c-46.432,6.529-92.864,13.06-139.297,19.589c-3.379,0.475-6.759,0.949-10.138,1.426
			c1.472,0.979,2.944,1.959,4.416,2.938c-4.485-31.896-8.971-63.794-13.456-95.69c-8.914-63.391-17.828-126.78-26.741-190.17
			c-6.528-46.433-13.059-92.865-19.588-139.297c-0.475-3.38-0.95-6.759-1.425-10.139c-0.98,1.472-1.959,2.944-2.939,4.416
			c31.897-4.485,63.794-8.97,95.691-13.456c63.39-8.914,126.779-17.828,190.17-26.741c46.433-6.529,92.864-13.058,139.297-19.587
			c3.38-0.475,6.759-0.951,10.139-1.426c-1.473-0.979-2.943-1.959-4.416-2.939c4.484,31.897,8.97,63.794,13.455,95.691
			c8.914,63.39,17.828,126.78,26.741,190.171c6.529,46.433,13.059,92.864,19.588,139.298c0.475,3.379,0.95,6.759,1.426,10.138
			c0.674,4.789,8.026,3.299,7.354-1.478c-4.485-31.896-8.971-63.794-13.456-95.69c-8.913-63.391-17.827-126.78-26.74-190.17
			c-6.529-46.432-13.059-92.864-19.588-139.297c-0.476-3.379-0.95-6.759-1.426-10.138c-0.297-2.108-2.487-3.21-4.416-2.938
			c-31.896,4.485-63.794,8.971-95.69,13.456c-63.391,8.914-126.78,17.827-190.171,26.741
			c-46.432,6.529-92.864,13.058-139.297,19.587c-3.379,0.475-6.759,0.95-10.139,1.425c-2.108,0.297-3.21,2.487-2.938,4.417
			c4.485,31.896,8.971,63.794,13.456,95.691c8.914,63.39,17.828,126.78,26.741,190.169c6.529,46.434,13.058,92.864,19.587,139.298
			c0.476,3.379,0.951,6.759,1.426,10.139c0.297,2.107,2.487,3.21,4.416,2.938c31.897-4.484,63.794-8.971,95.691-13.456
			c63.39-8.912,126.781-17.826,190.17-26.74c46.433-6.528,92.864-13.059,139.297-19.587c3.38-0.477,6.759-0.951,10.139-1.427
			C653.78,589.047,652.291,581.694,647.515,582.365z"/>
	</g>
	<g id="_x3C_cuadrado1_x3E_"  class="capa03">
		
			<linearGradient id="SVGID_2_" gradientUnits="userSpaceOnUse" x1="82.9294" y1="400.0156" x2="717.1125" y2="400.0156" gradientTransform="matrix(1 0 0 -1 -0.02 799.0947)">
			<stop  offset="0" style="stop-color:#6CBAFC"/>
			<stop  offset="0.3118" style="stop-color:#6DBDF9"/>
			<stop  offset="0.5319" style="stop-color:#71C6F1"/>
			<stop  offset="0.7238" style="stop-color:#79D6E4"/>
			<stop  offset="0.8985" style="stop-color:#82EBD1"/>
			<stop  offset="1" style="stop-color:#8AFCC2"/>
		</linearGradient>
		<path fill="url(#SVGID_2_)" d="M359.165,710.385c-19.113-25.373-38.228-50.746-57.342-76.118
			c-38.417-50.995-76.835-101.992-115.253-152.988c-29.333-38.938-58.667-77.878-88-116.815c-2.869-3.809-5.738-7.618-8.608-11.428
			c-0.449,1.71-0.897,3.42-1.345,5.131c25.372-19.114,50.744-38.228,76.117-57.342c50.997-38.418,101.993-76.835,152.989-115.253
			c38.938-29.333,77.876-58.667,116.813-88c3.811-2.87,7.619-5.739,11.429-8.609c-1.71-0.449-3.42-0.897-5.131-1.346
			c19.113,25.373,38.229,50.746,57.343,76.118c38.418,50.997,76.835,101.993,115.253,152.989
			c29.333,38.938,58.667,77.876,88.001,116.814c2.869,3.81,5.739,7.619,8.607,11.428c0.448-1.71,0.897-3.42,1.347-5.131
			c-25.373,19.114-50.745,38.229-76.118,57.343c-50.996,38.418-101.993,76.835-152.989,115.253
			c-38.938,29.333-77.877,58.667-116.814,88.001c-3.81,2.869-7.618,5.739-11.429,8.608c-3.812,2.872-0.081,9.389,3.786,6.477
			c25.373-19.113,50.745-38.229,76.118-57.343c50.996-38.418,101.993-76.835,152.989-115.253
			c38.938-29.334,77.876-58.667,116.813-88.001c3.811-2.869,7.618-5.739,11.429-8.608c1.477-1.111,2.677-3.362,1.346-5.131
			c-19.114-25.373-38.229-50.746-57.343-76.118c-38.418-50.996-76.835-101.993-115.253-152.989
			c-29.333-38.938-58.667-77.876-88.001-116.814c-2.869-3.81-5.739-7.619-8.608-11.428c-1.112-1.477-3.363-2.677-5.131-1.345
			c-25.373,19.114-50.745,38.228-76.118,57.342c-50.997,38.417-101.993,76.835-152.99,115.253
			c-38.938,29.333-77.876,58.667-116.813,88c-3.81,2.87-7.619,5.739-11.428,8.609c-1.478,1.113-2.678,3.363-1.346,5.131
			c19.114,25.373,38.229,50.746,57.343,76.118c38.417,50.996,76.835,101.992,115.253,152.989
			c29.333,38.938,58.666,77.876,87.999,116.814c2.87,3.81,5.739,7.618,8.609,11.428
			C355.562,717.981,362.078,714.251,359.165,710.385z"/>
	</g>
</g>
</svg>
